#N canvas 207 100 786 673 10;
#X obj 59 276 *~ 0.1;
#X obj 59 297 *~, f 11;
#X obj 122 249 tgl 15 0 empty empty empty 17 7 0 10 -262144 -1 -1 1
1;
#X obj 122 269 lop~ 5;
#X obj 59 318 /~ 1;
#X obj 183 274 *~ 0.1;
#X obj 182 295 *~, f 11;
#X obj 245 247 tgl 15 0 empty empty empty 17 7 0 10 -262144 -1 -1 1
1;
#X obj 245 267 lop~ 5;
#X obj 182 316 /~ 2;
#X obj 305 272 *~ 0.1;
#X obj 304 293 *~, f 11;
#X obj 367 245 tgl 15 0 empty empty empty 17 7 0 10 -262144 -1 -1 1
1;
#X obj 367 265 lop~ 5;
#X obj 428 270 *~ 0.1;
#X obj 427 291 *~, f 11;
#X obj 490 243 tgl 15 0 empty empty empty 17 7 0 10 -262144 -1 -1 1
1;
#X obj 490 263 lop~ 5;
#X obj 87 138 sig~ 110;
#X obj 60 205 *~ 1;
#X obj 304 201 *~ 3;
#X obj 182 204 *~ 2;
#X obj 427 199 *~ 4;
#X obj 58 227 osc~;
#X obj 183 225 osc~;
#X obj 305 222 osc~;
#X obj 428 220 osc~;
#X obj 157 494 dac~ 1 2 3 4 5 6, f 45;
#X obj 304 314 /~ 23;
#X obj 427 312 /~ 34;
#X connect 0 0 1 0;
#X connect 1 0 4 0;
#X connect 2 0 3 0;
#X connect 3 0 1 1;
#X connect 4 0 27 0;
#X connect 5 0 6 0;
#X connect 6 0 9 0;
#X connect 7 0 8 0;
#X connect 8 0 6 1;
#X connect 9 0 27 1;
#X connect 10 0 11 0;
#X connect 11 0 28 0;
#X connect 12 0 13 0;
#X connect 13 0 11 1;
#X connect 14 0 15 0;
#X connect 15 0 29 0;
#X connect 16 0 17 0;
#X connect 17 0 15 1;
#X connect 18 0 19 0;
#X connect 18 0 20 0;
#X connect 18 0 21 0;
#X connect 18 0 22 0;
#X connect 19 0 23 0;
#X connect 20 0 25 0;
#X connect 21 0 24 0;
#X connect 22 0 26 0;
#X connect 23 0 0 0;
#X connect 24 0 5 0;
#X connect 25 0 10 0;
#X connect 26 0 14 0;
#X connect 28 0 27 2;
#X connect 29 0 27 3;
