#N canvas 318 131 1025 658 10;
#X obj 266 474 *~, f 19;
#X obj 394 27 inlet;
#X obj 394 53 route pitch, f 17;
#X obj 394 74 s \$0-pitch;
#X obj 281 352 r \$0-pitch;
#X obj 266 453 osc~;
#X obj 266 383 * 1;
#X obj 383 422 line~;
#X obj 266 425 line~;
#X obj 592 277 random 200;
#X obj 592 298 / 200;
#X obj 592 319 clip 0 1;
#X obj 391 161 unpack 0 0;
#X msg 539 126 stop;
#X obj 599 148 r master-kill;
#X msg 463 269 0 10;
#X obj 505 103 t a b b b;
#X obj 465 245 del 10;
#X msg 674 337 0 10;
#X obj 719 363 del 10;
#X obj 704 301 t b b b;
#X msg 737 339 stop;
#X msg 719 384 0;
#X obj 724 476 switch~;
#X msg 779 391 1;
#X obj 771 304 t f b b;
#X obj 704 279 moses 0.0001;
#X msg 266 404 \$1 3;
#X msg 377 284 \$1 3;
#X obj 266 542 send-1-line6, f 54;
#X obj 593 216 loadbang;
#X connect 0 0 29 0;
#X connect 1 0 2 0;
#X connect 2 0 3 0;
#X connect 2 1 16 0;
#X connect 4 0 6 1;
#X connect 5 0 0 0;
#X connect 6 0 27 0;
#X connect 7 0 0 1;
#X connect 8 0 5 0;
#X connect 9 0 10 0;
#X connect 10 0 11 0;
#X connect 11 0 29 1;
#X connect 12 0 6 0;
#X connect 12 1 26 0;
#X connect 13 0 17 0;
#X connect 14 0 17 0;
#X connect 15 0 7 0;
#X connect 16 0 12 0;
#X connect 16 2 13 0;
#X connect 17 0 15 0;
#X connect 18 0 7 0;
#X connect 19 0 22 0;
#X connect 20 0 18 0;
#X connect 20 1 19 0;
#X connect 20 2 21 0;
#X connect 21 0 19 0;
#X connect 22 0 23 0;
#X connect 24 0 23 0;
#X connect 25 0 28 0;
#X connect 25 1 21 0;
#X connect 25 2 24 0;
#X connect 26 0 20 0;
#X connect 26 1 25 0;
#X connect 27 0 8 0;
#X connect 28 0 7 0;
#X connect 30 0 9 0;
