#N canvas 0 99 1025 658 10;
#X obj 281 149 r frame-count;
#X obj 266 474 *~, f 19;
#X obj 314 175 r frame-count;
#X obj 281 170 - 2;
#X obj 314 196 * \$1;
#X obj 266 545 throw~ out-mix-yo;
#X obj 592 83 inlet;
#X obj 592 109 route pitch;
#X obj 592 130 s \$0-pitch;
#X obj 281 352 r \$0-pitch;
#X obj 266 453 osc~;
#X obj 266 94 r master-phase;
#X obj 266 193 *;
#X obj 266 234 +;
#X obj 266 312 tabread4 frq-array;
#X obj 387 311 tabread4 mag-array;
#X obj 266 383 * 1;
#X obj 266 425 vline~;
#X obj 382 422 vline~;
#X obj 266 260 + 1;
#X msg 266 404 \$1 10;
#X msg 382 401 \$1 10;
#X obj 266 495 *~ 1;
#X connect 0 0 3 0;
#X connect 1 0 22 0;
#X connect 2 0 4 0;
#X connect 3 0 12 1;
#X connect 4 0 13 1;
#X connect 6 0 7 0;
#X connect 7 0 8 0;
#X connect 9 0 16 1;
#X connect 10 0 1 0;
#X connect 11 0 12 0;
#X connect 12 0 13 0;
#X connect 13 0 19 0;
#X connect 14 0 16 0;
#X connect 15 0 21 0;
#X connect 16 0 20 0;
#X connect 17 0 10 0;
#X connect 18 0 1 1;
#X connect 19 0 14 0;
#X connect 19 0 15 0;
#X connect 20 0 17 0;
#X connect 21 0 18 0;
#X connect 22 0 5 0;
