#N canvas 442 135 878 648 10;
#X obj 266 312 tabread4~ frq-array;
#X obj 266 234 +~;
#X obj 266 194 *~;
#X obj 281 149 r frame-count;
#X obj 406 312 tabread4~ mag-array;
#X obj 266 474 *~, f 19;
#X obj 314 175 r frame-count;
#X obj 266 260 +~ 1;
#X obj 281 170 - 2;
#X obj 266 94 r~ master-phase;
#X obj 314 196 * \$1;
#X obj 266 545 throw~ out-mix-yo;
#X obj 592 83 inlet;
#X obj 592 109 route pitch;
#X obj 592 130 s \$0-pitch;
#X obj 281 352 r \$0-pitch;
#X obj 266 383 *~ 1;
#X obj 266 413 osc~;
#X obj 467 260 switch~;
#X msg 467 216 1;
#X msg 502 217 0;
#X connect 0 0 16 0;
#X connect 1 0 7 0;
#X connect 2 0 1 0;
#X connect 3 0 8 0;
#X connect 4 0 5 1;
#X connect 5 0 11 0;
#X connect 6 0 10 0;
#X connect 7 0 0 0;
#X connect 7 0 4 0;
#X connect 8 0 2 1;
#X connect 9 0 2 0;
#X connect 10 0 1 1;
#X connect 12 0 13 0;
#X connect 13 0 14 0;
#X connect 15 0 16 1;
#X connect 16 0 17 0;
#X connect 17 0 5 0;
#X connect 19 0 18 0;
#X connect 20 0 18 0;
