#N canvas 0 23 1041 740 10;
#X obj 266 474 *~, f 19;
#X obj 266 545 throw~ out-mix-yo;
#X obj 592 83 inlet;
#X obj 592 109 route pitch;
#X obj 592 130 s \$0-pitch;
#X obj 281 352 r \$0-pitch;
#X obj 266 383 *~ 1;
#X obj 266 413 osc~;
#X obj 248 201 route \$1;
#X obj 248 171 r frqy;
#X msg 248 252 \$1 10;
#X obj 248 273 vline~;
#X msg 448 302 \$1 10;
#X obj 448 323 vline~;
#X obj 401 205 r off;
#X obj 248 222 unpack 0 0;
#X msg 401 226 0 2;
#X connect 0 0 1 0;
#X connect 2 0 3 0;
#X connect 3 0 4 0;
#X connect 5 0 6 1;
#X connect 6 0 7 0;
#X connect 7 0 0 0;
#X connect 8 0 15 0;
#X connect 9 0 8 0;
#X connect 10 0 11 0;
#X connect 11 0 6 0;
#X connect 12 0 13 0;
#X connect 13 0 0 1;
#X connect 14 0 16 0;
#X connect 15 0 10 0;
#X connect 15 1 12 0;
#X connect 16 0 13 0;
