#N canvas 151 204 996 674 10;
#X obj 30 20 inlet;
#X msg 30 55 read \$1 cr;
#X obj 156 211 textfile;
#X obj 30 79 t b b a, f 22;
#X obj 253 214 t b;
#X msg 253 235 0;
#X obj 208 121 t b b;
#X obj 183 80 bng 15 250 50 0 empty empty empty 17 7 0 10 -262144 -1
-1;
#X obj 582 538 list split 3, f 60;
#X obj 788 477 list;
#X obj 639 476 f;
#X obj 678 477 + 1;
#X msg 686 360 0;
#X obj 582 453 t a b, f 10;
#X obj 612 650 s frqy;
#X obj 582 559 unpack 0 0 0;
#X obj 639 497 t f f;
#X obj 735 339 s off;
#X obj 306 198 spigot 0;
#X obj 351 175 tgl 15 0 empty empty empty 17 7 0 10 -262144 -1 -1 1
1;
#X obj 158 273 route par-text-frame-format point-type partials-count
frame-count frame-data, f 71;
#X msg 94 154 rewind \, bang \, bang \, bang \, bang \, bang;
#X obj 582 322 t a b, f 15;
#X obj 580 300 list split 2;
#X obj 208 80 metro 200;
#X floatatom 253 48 5 0 0 0 - - -;
#X obj 611 625 pack 0 0 0;
#X obj 581 583 t b a;
#X obj 248 26 inlet;
#X obj 349 51 s master-kill;
#X obj 328 324 s partials-count;
#X connect 0 0 1 0;
#X connect 1 0 3 0;
#X connect 2 0 20 0;
#X connect 2 1 4 0;
#X connect 2 1 18 0;
#X connect 3 1 21 0;
#X connect 3 2 2 0;
#X connect 4 0 5 0;
#X connect 6 0 2 0;
#X connect 6 1 29 0;
#X connect 7 0 6 0;
#X connect 8 0 15 0;
#X connect 8 1 9 1;
#X connect 9 0 13 0;
#X connect 10 0 11 0;
#X connect 10 0 16 0;
#X connect 11 0 10 1;
#X connect 12 0 10 1;
#X connect 13 0 8 0;
#X connect 13 1 10 0;
#X connect 15 0 27 0;
#X connect 15 1 26 1;
#X connect 15 2 26 2;
#X connect 18 0 21 0;
#X connect 19 0 18 1;
#X connect 20 2 30 0;
#X connect 20 5 23 0;
#X connect 21 0 2 0;
#X connect 22 0 13 0;
#X connect 22 1 12 0;
#X connect 23 1 22 0;
#X connect 24 0 6 0;
#X connect 25 0 24 1;
#X connect 26 0 14 0;
#X connect 27 0 9 0;
#X connect 27 1 26 0;
#X connect 28 0 24 0;
