#N canvas 401 116 996 674 10;
#X obj 30 20 inlet;
#X msg 30 55 read \$1 cr;
#X obj 159 231 textfile;
#X obj 30 79 t b b a, f 22;
#X obj 253 214 t b;
#X msg 253 235 0;
#X obj 159 265 route par-text-partials-format point-type partials-count
partials-data, f 71;
#X obj 614 316 f;
#X obj 646 317 + 1;
#X obj 615 338 % 2;
#X obj 208 74 tgl 15 0 empty empty empty 17 7 0 10 -262144 -1 -1 1
1;
#X obj 208 121 t b b;
#X msg 94 154 rewind \, bang \, bang \, bang \, bang;
#X obj 582 364 spigot;
#X obj 314 95 bng 15 250 50 0 empty empty empty 17 7 0 10 -262144 -1
-1;
#X obj 582 518 list split 3, f 60;
#X obj 696 464 list;
#X obj 609 459 f;
#X obj 648 460 + 1;
#X msg 686 328 0;
#X obj 582 433 t a b;
#X obj 579 638 s frqy;
#X obj 582 539 unpack 0 0 0;
#X obj 579 615 list prepend;
#X obj 609 480 t f f;
#X obj 582 560 t b;
#X obj 582 290 t a b b b, f 15;
#X obj 735 319 s off;
#X obj 614 575 pack 0 0;
#X obj 208 100 metro 45;
#X connect 0 0 1 0;
#X connect 1 0 3 0;
#X connect 2 0 6 0;
#X connect 2 1 4 0;
#X connect 3 1 12 0;
#X connect 3 2 2 0;
#X connect 4 0 5 0;
#X connect 6 4 26 0;
#X connect 7 0 8 0;
#X connect 7 0 9 0;
#X connect 8 0 7 1;
#X connect 9 0 13 1;
#X connect 10 0 29 0;
#X connect 11 0 2 0;
#X connect 11 1 2 0;
#X connect 12 0 2 0;
#X connect 13 0 20 0;
#X connect 14 0 11 0;
#X connect 15 0 22 0;
#X connect 15 1 16 1;
#X connect 16 0 20 0;
#X connect 17 0 18 0;
#X connect 17 0 24 0;
#X connect 18 0 17 1;
#X connect 19 0 17 1;
#X connect 20 0 15 0;
#X connect 20 1 17 0;
#X connect 22 0 25 0;
#X connect 22 1 28 0;
#X connect 22 2 28 1;
#X connect 23 0 21 0;
#X connect 24 0 23 1;
#X connect 25 0 16 0;
#X connect 26 0 13 0;
#X connect 26 1 7 0;
#X connect 26 2 19 0;
#X connect 28 0 23 0;
#X connect 29 0 11 0;
