#N canvas 0 23 450 300 10;
#X obj 213 103 readsf~ 2;
#X obj 295 39 openpanel;
#X obj 296 -12 bng 15 250 50 0 empty empty empty 17 7 0 10 -262144
-1 -1;
#X obj 213 -6 tgl 15 0 empty empty empty 17 7 0 10 -262144 -1 -1 0
1;
#X obj 295 8 t b b;
#X msg 247 59 0;
#X obj 304 93 print huh;
#X msg 295 66 open \$1;
#X obj 213 172 sigmund~ -npeak 6 peaks;
#X obj 213 124 *~ 0.7;
#X obj 258 125 *~ 0.7;
#X obj 213 145 *~ 1;
#X connect 0 0 9 0;
#X connect 0 1 10 0;
#X connect 1 0 7 0;
#X connect 2 0 4 0;
#X connect 3 0 0 0;
#X connect 4 0 1 0;
#X connect 4 1 5 0;
#X connect 5 0 3 0;
#X connect 7 0 0 0;
#X connect 7 0 6 0;
#X connect 9 0 11 0;
#X connect 10 0 11 0;
#X connect 11 0 8 0;
