#N canvas 172 144 1268 660 10;
#X obj 50 399 array define frq-array;
#X obj 26 56 bng 15 250 50 0 empty empty empty 17 7 0 10 -262144 -1
-1;
#X obj 26 77 openpanel;
#X obj 50 429 array define mag-array;
#X obj 312 9 r partials-count;
#X floatatom 312 30 5 0 0 0 - - -;
#X msg 895 267 all pitch \$1;
#X floatatom 895 243 5 0 0 0 - - -;
#X text 19 40 click to load spear;
#X text 880 323 <---- change last number to add partials;
#X text 932 242 repitch the entire playback;
#X obj 195 7 r frame-count;
#X floatatom 195 28 15 0 0 0 - - -;
#N canvas 0 23 799 557 6-output 0;
#X obj 227 408 dac~ 1 2 3 4 5 6, f 54;
#X obj 140 172 catch~ 2-dac-1;
#X obj 251 172 catch~ 2-dac-2;
#X obj 345 171 catch~ 2-dac-3;
#X obj 441 172 catch~ 2-dac-4;
#X obj 537 172 catch~ 2-dac-5;
#X obj 632 171 catch~ 2-dac-6;
#X obj 143 223 *~;
#X obj 158 198 r~ \$0-out-vol;
#X obj 243 223 *~;
#X obj 258 198 r~ \$0-out-vol;
#X obj 347 220 *~;
#X obj 358 198 r~ \$0-out-vol;
#X obj 443 223 *~;
#X obj 458 198 r~ \$0-out-vol;
#X obj 533 223 *~;
#X obj 548 198 r~ \$0-out-vol;
#X obj 633 223 *~;
#X obj 648 198 r~ \$0-out-vol;
#X obj 173 143 s~ \$0-out-vol;
#X text 508 351 stereo for now;
#X obj 176 103 / 127;
#X obj 176 124 lop~ 5;
#X obj 168 31 inlet;
#X obj 168 52 clip 0 127;
#X connect 1 0 7 0;
#X connect 2 0 9 0;
#X connect 3 0 11 0;
#X connect 4 0 13 0;
#X connect 5 0 15 0;
#X connect 6 0 17 0;
#X connect 7 0 0 0;
#X connect 8 0 7 1;
#X connect 9 0 0 1;
#X connect 10 0 9 1;
#X connect 11 0 0 0;
#X connect 12 0 11 1;
#X connect 13 0 0 1;
#X connect 14 0 13 1;
#X connect 15 0 0 0;
#X connect 16 0 15 1;
#X connect 17 0 0 1;
#X connect 18 0 17 1;
#X connect 21 0 22 0;
#X connect 22 0 19 0;
#X connect 23 0 24 0;
#X connect 24 0 21 0;
#X restore 187 596 pd 6-output;
#X obj 187 523 hsl 128 15 0 127 0 0 empty empty empty -2 -8 0 10 -262144
-1 -1 0 1;
#X text 212 503 master volume;
#N canvas 0 23 1201 724 6-way 0;
#X obj 483 232 *~;
#X obj 496 166 lop~ 5;
#X obj 502 85 hsl 128 15 0 127 0 0 empty empty empty -2 -8 0 10 -262144
-1 -1 0 1;
#X obj 498 111 / 127;
#X obj 498 132 pow 2;
#X text 636 90 VOLUME;
#X obj 484 269 send-2-6;
#X obj 562 189 hsl 128 15 0 127 0 0 empty empty empty -2 -8 0 10 -262144
-1 -1 0 1;
#X obj 558 215 / 127;
#X obj 566 264 vline~;
#X msg 558 236 \$1 10;
#X obj 463 50 catch~ out-1-yo;
#X obj 516 485 *~;
#X obj 529 419 lop~ 5;
#X obj 535 338 hsl 128 15 0 127 0 0 empty empty empty -2 -8 0 10 -262144
-1 -1 0 1;
#X obj 531 364 / 127;
#X obj 531 385 pow 2;
#X text 669 343 VOLUME;
#X obj 517 522 send-2-6;
#X obj 595 442 hsl 128 15 0 127 0 0 empty empty empty -2 -8 0 10 -262144
-1 -1 0 1;
#X obj 591 468 / 127;
#X obj 599 517 vline~;
#X msg 591 489 \$1 10;
#X obj 497 303 catch~ out-2-yo;
#X obj 726 248 *~;
#X obj 739 182 lop~ 5;
#X obj 745 101 hsl 128 15 0 127 0 0 empty empty empty -2 -8 0 10 -262144
-1 -1 0 1;
#X obj 741 127 / 127;
#X obj 741 148 pow 2;
#X text 879 106 VOLUME;
#X obj 727 285 send-2-6;
#X obj 805 205 hsl 128 15 0 127 0 0 empty empty empty -2 -8 0 10 -262144
-1 -1 0 1;
#X obj 801 231 / 127;
#X obj 809 280 vline~;
#X msg 801 252 \$1 10;
#X obj 706 66 catch~ out-3-yo;
#X obj 812 439 catch~ out-2-yo;
#X obj 924 439 catch~ out-4-yo;
#X obj 932 490 catch~ out-16-yo;
#X obj 850 519 *~ 1;
#X obj 808 575 writesf~ 6, f 33;
#X msg 740 414 start;
#X msg 742 440 stop;
#X obj 973 402 *~ 1;
#X obj 935 322 catch~ out-32-yo;
#X obj 1047 322 catch~ out-34-yo;
#X obj 1055 373 catch~ out-17-yo;
#X obj 1071 494 *~ 1;
#X obj 1033 414 catch~ out-12-yo;
#X obj 1145 414 catch~ out-14-yo;
#X obj 1153 465 catch~ out-16-yo;
#X msg 731 358 open -bytes 3 poo1.wav;
#X connect 0 0 6 0;
#X connect 1 0 0 1;
#X connect 2 0 3 0;
#X connect 3 0 4 0;
#X connect 4 0 1 0;
#X connect 7 0 8 0;
#X connect 8 0 10 0;
#X connect 9 0 6 1;
#X connect 10 0 9 0;
#X connect 11 0 0 0;
#X connect 12 0 18 0;
#X connect 13 0 12 1;
#X connect 14 0 15 0;
#X connect 15 0 16 0;
#X connect 16 0 13 0;
#X connect 19 0 20 0;
#X connect 20 0 22 0;
#X connect 21 0 18 1;
#X connect 22 0 21 0;
#X connect 23 0 12 0;
#X connect 24 0 30 0;
#X connect 25 0 24 1;
#X connect 26 0 27 0;
#X connect 27 0 28 0;
#X connect 28 0 25 0;
#X connect 31 0 32 0;
#X connect 32 0 34 0;
#X connect 33 0 30 1;
#X connect 34 0 33 0;
#X connect 35 0 24 0;
#X connect 36 0 39 0;
#X connect 37 0 39 0;
#X connect 38 0 39 0;
#X connect 39 0 40 1;
#X connect 41 0 40 0;
#X connect 42 0 40 0;
#X connect 43 0 40 2;
#X connect 44 0 43 0;
#X connect 45 0 43 0;
#X connect 46 0 43 0;
#X connect 47 0 40 3;
#X connect 48 0 47 0;
#X connect 49 0 47 0;
#X connect 50 0 47 0;
#X connect 51 0 40 0;
#X restore 377 446 pd 6-way out;
#X obj 984 88 loadbang;
#X obj 690 478 s master-phase;
#X obj 695 394 f;
#X obj 726 394 + 1;
#X obj 696 334 tgl 15 0 empty empty empty 17 7 0 10 -262144 -1 -1 0
1;
#X msg 791 356 0;
#X obj 692 418 % 1000;
#X obj 690 446 / 1000;
#X floatatom 729 291 5 0 0 0 - - -;
#X floatatom 783 403 5 0 0 0 - - -;
#X obj 96 86 symbol;
#X obj 696 358 metro 10;
#X obj 903 189 hsl 128 15 0 127 0 0 empty empty empty -2 -8 0 10 -262144
-1 -1 12700 1;
#X obj 895 214 / 127;
#X msg 909 153 127;
#X obj 18 162 new-read-spear, f 25;
#N canvas 492 54 859 705 read-spear-txt 0;
#X obj 30 20 inlet;
#X obj 186 331 sel partials-count;
#X msg 30 55 read \$1 cr;
#X obj 159 191 textfile;
#X obj 30 79 t b b a, f 22;
#X obj 159 218 list split 2, f 60;
#X obj 248 158 t b;
#X msg 191 125 rewind;
#X obj 337 244 t l b, f 16;
#X obj 159 436 sel frame-count;
#X obj 159 285 list split 1, f 19;
#X obj 186 352 f, f 6;
#X obj 159 306 t a a;
#X obj 214 307 t a a;
#X obj 159 497 f;
#X obj 159 638 s frame-count;
#X obj 262 552 *;
#X obj 186 373 t f f;
#X obj 622 642 tabwrite mag-array;
#X obj 527 678 tabwrite frq-array;
#X obj 430 314 f, f 7;
#X obj 498 315 + 1;
#X obj 159 457 t b b, f 17;
#X msg 376 275 0;
#X obj 337 401 list split 3, f 41;
#X obj 400 435 list;
#X obj 454 488 unpack 0 0 0, f 31;
#X obj 622 619 f;
#X obj 337 462 t b b b l, f 20;
#X obj 527 653 f;
#X obj 454 559 *;
#X obj 454 580 +, f 9;
#X obj 454 601 t f f;
#X obj 159 521 t f f f, f 35;
#X obj 215 398 s partials-count;
#X msg 262 573 \; frq-array resize \$1 \; mag-array resize \$1 \;;
#X obj 285 639 print array-size;
#X msg 248 179 0;
#X obj 87 118 tgl 15 0 empty empty empty 17 7 0 10 -262144 -1 -1 0
1;
#X msg 30 100 1;
#X obj 92 143 metro 1;
#X connect 0 0 2 0;
#X connect 1 0 11 0;
#X connect 2 0 4 0;
#X connect 3 0 5 0;
#X connect 3 1 6 0;
#X connect 4 0 39 0;
#X connect 4 1 7 0;
#X connect 4 2 3 0;
#X connect 5 0 10 0;
#X connect 5 1 8 0;
#X connect 6 0 37 0;
#X connect 7 0 3 0;
#X connect 8 0 24 0;
#X connect 8 1 20 0;
#X connect 9 0 22 0;
#X connect 10 0 12 0;
#X connect 10 1 13 0;
#X connect 11 0 17 0;
#X connect 12 0 9 0;
#X connect 12 1 1 0;
#X connect 13 0 14 1;
#X connect 13 1 11 1;
#X connect 14 0 33 0;
#X connect 16 0 35 0;
#X connect 16 0 36 0;
#X connect 17 0 16 1;
#X connect 17 1 34 0;
#X connect 20 0 21 0;
#X connect 20 0 31 1;
#X connect 21 0 20 1;
#X connect 22 0 14 0;
#X connect 22 1 23 0;
#X connect 23 0 20 1;
#X connect 24 0 28 0;
#X connect 24 1 25 1;
#X connect 25 0 24 0;
#X connect 26 0 30 0;
#X connect 26 1 29 1;
#X connect 26 2 27 1;
#X connect 27 0 18 0;
#X connect 28 0 25 0;
#X connect 28 1 29 0;
#X connect 28 2 27 0;
#X connect 28 3 26 0;
#X connect 29 0 19 0;
#X connect 30 0 31 0;
#X connect 31 0 32 0;
#X connect 32 0 19 1;
#X connect 32 1 18 1;
#X connect 33 0 15 0;
#X connect 33 1 16 0;
#X connect 33 2 30 1;
#X connect 37 0 38 0;
#X connect 38 0 40 0;
#X connect 39 0 38 0;
#X connect 40 0 3 0;
#X restore 518 108 pd read-spear-txt;
#X obj 737 22 r frqy;
#X obj 174 130 tgl 15 0 empty empty empty 17 7 0 10 -262144 -1 -1 0
1;
#X obj 738 44 unpack 0 0 0;
#X obj 738 124 pack 0 0 0, f 15;
#X obj 896 349 clone metro-play-partial 200;
#X msg 97 65 THE-GARDEN2.txt;
#X obj 738 85 % 200;
#X connect 1 0 2 0;
#X connect 2 0 32 0;
#X connect 4 0 5 0;
#X connect 6 0 38 0;
#X connect 7 0 6 0;
#X connect 11 0 12 0;
#X connect 14 0 13 0;
#X connect 17 0 31 0;
#X connect 19 0 20 0;
#X connect 19 0 23 0;
#X connect 20 0 19 1;
#X connect 21 0 28 0;
#X connect 22 0 19 1;
#X connect 23 0 24 0;
#X connect 24 0 18 0;
#X connect 25 0 28 1;
#X connect 26 0 23 1;
#X connect 26 0 24 1;
#X connect 27 0 32 0;
#X connect 28 0 19 0;
#X connect 29 0 30 0;
#X connect 30 0 7 0;
#X connect 31 0 29 0;
#X connect 34 0 36 0;
#X connect 35 0 32 1;
#X connect 36 0 40 0;
#X connect 36 1 37 1;
#X connect 36 2 37 2;
#X connect 37 0 38 0;
#X connect 39 0 27 0;
#X connect 40 0 37 0;
