#N canvas 456 134 872 559 10;
#X obj 483 232 *~;
#X obj 496 166 lop~ 5;
#X obj 501 91 hsl 128 15 0 127 0 0 empty empty empty -2 -8 0 10 -262144
-1 -1 0 1;
#X obj 498 111 / 127;
#X obj 498 132 pow 2;
#X obj 440 492 dac~ 1 2 3 4 5 6, f 37;
#X obj 443 393 catch~ out-1-0;
#X obj 497 421 catch~ out-1-1;
#X obj 536 447 catch~ out-1-2;
#X obj 582 389 catch~ out-1-3;
#X obj 607 410 catch~ out-1-4;
#X obj 641 440 catch~ out-1-5;
#X obj 50 399 array define frq-array;
#N canvas 385 54 859 705 read-sdif 0;
#X obj 30 20 inlet;
#X obj 186 331 sel partials-count;
#X msg 30 55 read \$1 cr;
#X obj 159 191 textfile;
#X obj 30 79 t b b a, f 22;
#X obj 94 142 until;
#X obj 159 218 list split 2, f 60;
#X obj 248 158 t b;
#X msg 191 125 rewind;
#X obj 337 244 t l b, f 16;
#X obj 159 436 sel frame-count;
#X obj 159 285 list split 1, f 19;
#X obj 186 352 f, f 6;
#X obj 159 306 t a a;
#X obj 214 307 t a a;
#X obj 159 497 f;
#X obj 159 638 s frame-count;
#X obj 247 548 *;
#X obj 186 373 t f f;
#X msg 247 569 \; frq-array resize 0 \; frq-array resize \$1 \; mag-array
resize 0 \; mag-array resize \$1 \;;
#X obj 622 642 tabwrite mag-array;
#X obj 527 678 tabwrite frq-array;
#X obj 430 314 f, f 7;
#X obj 498 315 + 1;
#X obj 159 457 t b b, f 17;
#X msg 376 275 0;
#X obj 337 401 list split 3, f 41;
#X obj 400 435 list;
#X obj 454 488 unpack 0 0 0, f 31;
#X obj 622 619 f;
#X obj 337 462 t b b b l, f 20;
#X obj 527 653 f;
#X obj 454 559 *;
#X obj 454 580 +, f 9;
#X obj 454 601 t f f;
#X obj 159 522 t f f f, f 35;
#X obj 215 398 s partials-count;
#X connect 0 0 2 0;
#X connect 1 0 12 0;
#X connect 2 0 4 0;
#X connect 3 0 6 0;
#X connect 3 1 7 0;
#X connect 4 0 5 0;
#X connect 4 1 8 0;
#X connect 4 2 3 0;
#X connect 5 0 3 0;
#X connect 6 0 11 0;
#X connect 6 1 9 0;
#X connect 7 0 5 1;
#X connect 8 0 3 0;
#X connect 9 0 26 0;
#X connect 9 1 22 0;
#X connect 10 0 24 0;
#X connect 11 0 13 0;
#X connect 11 1 14 0;
#X connect 12 0 18 0;
#X connect 13 0 10 0;
#X connect 13 1 1 0;
#X connect 14 0 15 1;
#X connect 14 1 12 1;
#X connect 15 0 35 0;
#X connect 17 0 19 0;
#X connect 18 0 17 1;
#X connect 18 1 36 0;
#X connect 22 0 23 0;
#X connect 22 0 33 1;
#X connect 23 0 22 1;
#X connect 24 0 15 0;
#X connect 24 1 25 0;
#X connect 25 0 22 1;
#X connect 26 0 30 0;
#X connect 26 1 27 1;
#X connect 27 0 26 0;
#X connect 28 0 32 0;
#X connect 28 1 31 1;
#X connect 28 2 29 1;
#X connect 29 0 20 0;
#X connect 30 0 27 0;
#X connect 30 1 31 0;
#X connect 30 2 29 0;
#X connect 30 3 28 0;
#X connect 31 0 21 0;
#X connect 32 0 33 0;
#X connect 33 0 34 0;
#X connect 34 0 21 1;
#X connect 34 1 20 1;
#X connect 35 0 16 0;
#X connect 35 1 17 0;
#X connect 35 2 32 1;
#X restore 26 110 pd read-sdif;
#X obj 26 57 bng 15 250 50 0 empty empty empty 17 7 0 10 -262144 -1
-1;
#X obj 26 77 openpanel;
#X obj 50 429 array define mag-array;
#X obj 263 153 phasor~;
#X floatatom 262 112 15 0 0 0 - - -;
#X obj 463 50 catch~ out-mix-yo;
#X obj 263 214 s~ master-phase;
#X msg 262 68 0;
#X obj 312 9 r partials-count;
#X floatatom 312 30 5 0 0 0 - - -;
#X msg 30 292 vis 1 1;
#X obj 29 318 clone -s 1 new-play-partial 32;
#X msg 139 279 all pitch \$1;
#X floatatom 139 255 5 0 0 0 - - -;
#X text 636 90 VOLUME;
#X text 19 40 click to load spear;
#X msg 224 69 1;
#X obj 262 132 sig~ 0;
#X text 361 111 speed in hz;
#X text 218 318 <---- change last number to add partials;
#X text 176 254 repitch the entire playback;
#X connect 0 0 5 0;
#X connect 0 0 5 1;
#X connect 1 0 0 1;
#X connect 2 0 3 0;
#X connect 3 0 4 0;
#X connect 4 0 1 0;
#X connect 14 0 15 0;
#X connect 15 0 13 0;
#X connect 17 0 20 0;
#X connect 18 0 31 0;
#X connect 19 0 0 0;
#X connect 21 0 18 0;
#X connect 22 0 23 0;
#X connect 24 0 25 0;
#X connect 26 0 25 0;
#X connect 27 0 26 0;
#X connect 30 0 18 0;
#X connect 31 0 17 0;
