#N canvas 33 213 1268 660 10;
#X obj 483 232 *~;
#X obj 496 166 lop~ 5;
#X obj 502 85 hsl 128 15 0 127 0 0 empty empty empty -2 -8 0 10 -262144
-1 -1 0 1;
#X obj 498 111 / 127;
#X obj 498 132 pow 2;
#X obj 50 399 array define frq-array;
#X obj 26 57 bng 15 250 50 0 empty empty empty 17 7 0 10 -262144 -1
-1;
#X obj 26 77 openpanel;
#X obj 50 429 array define mag-array;
#X obj 263 153 phasor~;
#X floatatom 262 112 15 0 0 0 - - -;
#X obj 263 214 s~ master-phase;
#X msg 262 68 0;
#X obj 312 9 r partials-count;
#X floatatom 312 30 5 0 0 0 - - -;
#X msg 139 279 all pitch \$1;
#X floatatom 139 255 5 0 0 0 - - -;
#X text 636 90 VOLUME;
#X text 19 40 click to load spear;
#X msg 224 69 1;
#X obj 262 132 sig~ 0;
#X text 361 111 speed in hz;
#X text 218 318 <---- change last number to add partials;
#X text 176 254 repitch the entire playback;
#X obj 195 7 r frame-count;
#X floatatom 195 28 15 0 0 0 - - -;
#X msg 334 151 0;
#N canvas 385 54 859 705 read-spear-txt 0;
#X obj 30 20 inlet;
#X obj 186 331 sel partials-count;
#X msg 30 55 read \$1 cr;
#X obj 159 191 textfile;
#X obj 30 79 t b b a, f 22;
#X obj 94 142 until;
#X obj 159 218 list split 2, f 60;
#X obj 248 158 t b;
#X msg 191 125 rewind;
#X obj 337 244 t l b, f 16;
#X obj 159 436 sel frame-count;
#X obj 159 285 list split 1, f 19;
#X obj 186 352 f, f 6;
#X obj 159 306 t a a;
#X obj 214 307 t a a;
#X obj 159 497 f;
#X obj 159 638 s frame-count;
#X obj 247 548 *;
#X obj 186 373 t f f;
#X msg 247 569 \; frq-array resize 0 \; frq-array resize \$1 \; mag-array
resize 0 \; mag-array resize \$1 \;;
#X obj 622 642 tabwrite mag-array;
#X obj 527 678 tabwrite frq-array;
#X obj 430 314 f, f 7;
#X obj 498 315 + 1;
#X obj 159 457 t b b, f 17;
#X msg 376 275 0;
#X obj 337 401 list split 3, f 41;
#X obj 400 435 list;
#X obj 454 488 unpack 0 0 0, f 31;
#X obj 622 619 f;
#X obj 337 462 t b b b l, f 20;
#X obj 527 653 f;
#X obj 454 559 *;
#X obj 454 580 +, f 9;
#X obj 454 601 t f f;
#X obj 159 522 t f f f, f 35;
#X obj 215 398 s partials-count;
#X connect 0 0 2 0;
#X connect 1 0 12 0;
#X connect 2 0 4 0;
#X connect 3 0 6 0;
#X connect 3 1 7 0;
#X connect 4 0 5 0;
#X connect 4 1 8 0;
#X connect 4 2 3 0;
#X connect 5 0 3 0;
#X connect 6 0 11 0;
#X connect 6 1 9 0;
#X connect 7 0 5 1;
#X connect 8 0 3 0;
#X connect 9 0 26 0;
#X connect 9 1 22 0;
#X connect 10 0 24 0;
#X connect 11 0 13 0;
#X connect 11 1 14 0;
#X connect 12 0 18 0;
#X connect 13 0 10 0;
#X connect 13 1 1 0;
#X connect 14 0 15 1;
#X connect 14 1 12 1;
#X connect 15 0 35 0;
#X connect 17 0 19 0;
#X connect 18 0 17 1;
#X connect 18 1 36 0;
#X connect 22 0 23 0;
#X connect 22 0 33 1;
#X connect 23 0 22 1;
#X connect 24 0 15 0;
#X connect 24 1 25 0;
#X connect 25 0 22 1;
#X connect 26 0 30 0;
#X connect 26 1 27 1;
#X connect 27 0 26 0;
#X connect 28 0 32 0;
#X connect 28 1 31 1;
#X connect 28 2 29 1;
#X connect 29 0 20 0;
#X connect 30 0 27 0;
#X connect 30 1 31 0;
#X connect 30 2 29 0;
#X connect 30 3 28 0;
#X connect 31 0 21 0;
#X connect 32 0 33 0;
#X connect 33 0 34 0;
#X connect 34 0 21 1;
#X connect 34 1 20 1;
#X connect 35 0 16 0;
#X connect 35 1 17 0;
#X connect 35 2 32 1;
#X restore 26 108 pd read-spear-txt;
#X obj 484 269 send-2-6;
#X obj 562 189 hsl 128 15 0 127 0 0 empty empty empty -2 -8 0 10 -262144
-1 -1 0 1;
#X obj 558 215 / 127;
#X obj 566 264 vline~;
#X msg 558 236 \$1 10;
#N canvas 0 23 799 557 6-output 0;
#X obj 193 341 dac~ 1 2 3 4 5 6, f 54;
#X obj 193 228 catch~ 2-dac-1;
#X obj 219 255 catch~ 2-dac-2;
#X obj 330 228 catch~ 2-dac-3;
#X obj 363 266 catch~ 2-dac-4;
#X obj 477 243 catch~ 2-dac-5;
#X obj 528 287 catch~ 2-dac-6;
#X connect 1 0 0 0;
#X connect 2 0 0 1;
#X connect 3 0 0 2;
#X connect 4 0 0 3;
#X connect 5 0 0 4;
#X connect 6 0 0 5;
#X restore 46 469 pd 6-output;
#X obj 29 318 clone -s 1 new-play-partial 34;
#X obj 463 50 catch~ out-1-yo;
#X obj 516 485 *~;
#X obj 529 419 lop~ 5;
#X obj 535 338 hsl 128 15 0 127 0 0 empty empty empty -2 -8 0 10 -262144
-1 -1 0 1;
#X obj 531 364 / 127;
#X obj 531 385 pow 2;
#X text 669 343 VOLUME;
#X obj 517 522 send-2-6;
#X obj 595 442 hsl 128 15 0 127 0 0 empty empty empty -2 -8 0 10 -262144
-1 -1 0 1;
#X obj 591 468 / 127;
#X obj 599 517 vline~;
#X msg 591 489 \$1 10;
#X obj 497 303 catch~ out-2-yo;
#X obj 726 248 *~;
#X obj 739 182 lop~ 5;
#X obj 745 101 hsl 128 15 0 127 0 0 empty empty empty -2 -8 0 10 -262144
-1 -1 0 1;
#X obj 741 127 / 127;
#X obj 741 148 pow 2;
#X text 879 106 VOLUME;
#X obj 727 285 send-2-6;
#X obj 805 205 hsl 128 15 0 127 0 0 empty empty empty -2 -8 0 10 -262144
-1 -1 3000 1;
#X obj 801 231 / 127;
#X obj 809 280 vline~;
#X msg 801 252 \$1 10;
#X obj 706 66 catch~ out-3-yo;
#X obj 812 439 catch~ out-2-yo;
#X obj 924 439 catch~ out-4-yo;
#X obj 932 490 catch~ out-16-yo;
#X obj 850 519 *~ 1;
#X obj 808 575 writesf~ 6, f 33;
#X msg 740 414 start;
#X msg 742 440 stop;
#X msg 30 292 vis 32 1;
#X obj 973 402 *~ 1;
#X obj 935 322 catch~ out-32-yo;
#X obj 1047 322 catch~ out-34-yo;
#X obj 1055 373 catch~ out-17-yo;
#X obj 1071 494 *~ 1;
#X obj 1033 414 catch~ out-12-yo;
#X obj 1145 414 catch~ out-14-yo;
#X obj 1153 465 catch~ out-16-yo;
#X msg 731 358 open -bytes 3 poo1.wav;
#X connect 0 0 28 0;
#X connect 1 0 0 1;
#X connect 2 0 3 0;
#X connect 3 0 4 0;
#X connect 4 0 1 0;
#X connect 6 0 7 0;
#X connect 7 0 27 0;
#X connect 9 0 11 0;
#X connect 10 0 20 0;
#X connect 12 0 10 0;
#X connect 13 0 14 0;
#X connect 15 0 34 0;
#X connect 16 0 15 0;
#X connect 19 0 10 0;
#X connect 20 0 9 0;
#X connect 24 0 25 0;
#X connect 26 0 9 1;
#X connect 29 0 30 0;
#X connect 30 0 32 0;
#X connect 31 0 28 1;
#X connect 32 0 31 0;
#X connect 35 0 0 0;
#X connect 36 0 42 0;
#X connect 37 0 36 1;
#X connect 38 0 39 0;
#X connect 39 0 40 0;
#X connect 40 0 37 0;
#X connect 43 0 44 0;
#X connect 44 0 46 0;
#X connect 45 0 42 1;
#X connect 46 0 45 0;
#X connect 47 0 36 0;
#X connect 48 0 54 0;
#X connect 49 0 48 1;
#X connect 50 0 51 0;
#X connect 51 0 52 0;
#X connect 52 0 49 0;
#X connect 55 0 56 0;
#X connect 56 0 58 0;
#X connect 57 0 54 1;
#X connect 58 0 57 0;
#X connect 59 0 48 0;
#X connect 60 0 63 0;
#X connect 61 0 63 0;
#X connect 62 0 63 0;
#X connect 63 0 64 1;
#X connect 65 0 64 0;
#X connect 66 0 64 0;
#X connect 67 0 34 0;
#X connect 68 0 64 2;
#X connect 69 0 68 0;
#X connect 70 0 68 0;
#X connect 71 0 68 0;
#X connect 72 0 64 3;
#X connect 73 0 72 0;
#X connect 74 0 72 0;
#X connect 75 0 72 0;
#X connect 76 0 64 0;
