#N canvas 338 129 872 559 10;
#X obj 28 15 adc~ 1 2, f 20;
#X obj 29 37 *~ 0.7;
#X obj 146 37 *~ 0.7;
#X obj 31 69 *~ 1;
#X obj 213 103 readsf~ 2;
#X obj 295 39 openpanel;
#X obj 296 -12 bng 15 250 50 0 empty empty empty 17 7 0 10 -262144
-1 -1;
#X obj 213 -6 tgl 15 0 empty empty empty 17 7 0 10 -262144 -1 -1 0
1;
#X obj 295 8 t b b;
#X msg 247 59 0;
#X obj 304 93 print huh;
#X msg 295 66 open \$1;
#X obj 516 219 *~;
#X obj 529 153 lop~ 5;
#X obj 534 78 hsl 128 15 0 127 0 0 empty empty empty -2 -8 0 10 -262144
-1 -1 8700 1;
#X obj 531 98 / 127;
#X obj 531 119 pow 2;
#X obj 213 172 sigmund~ -npeak 6 peaks;
#X obj 213 124 *~ 0.7;
#X obj 258 125 *~ 0.7;
#X obj 213 145 *~ 1;
#X obj 440 492 dac~ 1 2 3 4 5 6, f 37;
#X obj 583 228 clone partial 6 1;
#X obj 213 239 clone translate 6 1;
#X msg 248 206 vis 0 1;
#X msg 581 184 vis 3 1;
#X obj 431 27 catch~ out-1-0;
#X obj 410 404 catch~ out-1-1;
#X obj 367 380 catch~ out-1-2;
#X obj 551 380 catch~ out-1-3;
#X obj 594 403 catch~ out-1-4;
#X obj 619 446 catch~ out-1-5;
#X obj 151 439 array define frq-array;
#X obj 151 469 array define amp-array;
#N canvas 791 70 649 478 read-sdif 0;
#X obj 30 20 inlet;
#X obj 162 364 sel partials-count;
#X msg 30 55 read \$1 cr;
#X obj 159 191 textfile;
#X obj 30 79 t b b a, f 22;
#X obj 94 142 until;
#X obj 159 218 list split 2, f 40;
#X obj 248 158 t b;
#X msg 94 110 rewind;
#X obj 277 244 t l b, f 16;
#X obj 183 335 sel frame-count;
#X obj 159 285 list split 1;
#X obj 351 351 tabwrite magarray;
#X obj 347 402 tabwrite frqarray;
#X connect 0 0 2 0;
#X connect 2 0 4 0;
#X connect 3 0 6 0;
#X connect 3 1 7 0;
#X connect 4 0 5 0;
#X connect 4 1 8 0;
#X connect 4 2 3 0;
#X connect 5 0 3 0;
#X connect 6 0 11 0;
#X connect 6 1 9 0;
#X connect 7 0 5 1;
#X connect 8 0 5 0;
#X restore 82 316 pd read-sdif;
#X obj 62 254 bng 15 250 50 0 empty empty empty 17 7 0 10 -262144 -1
-1;
#X obj 62 274 openpanel;
#X connect 0 0 1 0;
#X connect 0 1 2 0;
#X connect 1 0 3 0;
#X connect 2 0 3 0;
#X connect 4 0 18 0;
#X connect 4 1 19 0;
#X connect 5 0 11 0;
#X connect 6 0 8 0;
#X connect 7 0 4 0;
#X connect 8 0 5 0;
#X connect 8 1 9 0;
#X connect 9 0 7 0;
#X connect 11 0 4 0;
#X connect 11 0 10 0;
#X connect 12 0 21 2;
#X connect 13 0 12 1;
#X connect 14 0 15 0;
#X connect 15 0 16 0;
#X connect 16 0 13 0;
#X connect 17 0 23 0;
#X connect 18 0 20 0;
#X connect 19 0 20 0;
#X connect 20 0 17 0;
#X connect 24 0 23 0;
#X connect 25 0 22 0;
#X connect 26 0 12 0;
#X connect 29 0 21 3;
#X connect 30 0 21 4;
#X connect 31 0 21 5;
#X connect 35 0 36 0;
#X connect 36 0 34 0;
