#N canvas 375 195 450 300 10;
#X obj 77 143 phasor~;
#X obj 77 164 +~, f 14;
#X obj 77 110 +~, f 10;
#X obj 77 215 cos~;
#X obj 77 236 *~, f 19;
#X obj 77 185 wrap~;
#X obj 271 33 inlet;
#X obj 78 28 r~ freq-\$2-\$1;
#X obj 188 197 r~ amp-\$2-\$1;
#X obj 77 257 throw~ out-\$2-\$1;
#X connect 0 0 1 0;
#X connect 1 0 5 0;
#X connect 2 0 0 0;
#X connect 3 0 4 0;
#X connect 4 0 9 0;
#X connect 5 0 3 0;
#X connect 7 0 2 0;
#X connect 8 0 4 1;
