#N canvas 189 138 1026 559 10;
#X obj 26 27 inlet~ signal;
#X obj 21 412 throw~ 2-dac-1;
#X obj 36 313 cos~;
#X obj 36 269 -~ 0.5;
#X obj 36 269 -~ 0.5;
#X obj 36 291 *~ 0.5;
#X obj 36 173 wrap~;
#X obj 21 110 r~ \$0-local-signal;
#X obj 26 47 s~ \$0-local-signal;
#X obj 21 351 *~;
#X obj 478 80 s~ \$0-local-control;
#X obj 36 132 r~ \$0-local-control;
#X obj 196 313 cos~;
#X obj 196 269 -~ 0.5;
#X obj 196 269 -~ 0.5;
#X obj 196 291 *~ 0.5;
#X obj 181 110 r~ \$0-local-signal;
#X obj 181 351 *~;
#X obj 196 132 r~ \$0-local-control;
#X obj 356 313 cos~;
#X obj 356 269 -~ 0.5;
#X obj 356 269 -~ 0.5;
#X obj 356 291 *~ 0.5;
#X obj 356 173 wrap~;
#X obj 341 110 r~ \$0-local-signal;
#X obj 341 351 *~;
#X obj 356 131 r~ \$0-local-control;
#X obj 516 313 cos~;
#X obj 516 269 -~ 0.5;
#X obj 516 269 -~ 0.5;
#X obj 516 291 *~ 0.5;
#X obj 516 173 wrap~;
#X obj 501 110 r~ \$0-local-signal;
#X obj 501 351 *~;
#X obj 516 132 r~ \$0-local-control;
#X obj 656 313 cos~;
#X obj 656 269 -~ 0.5;
#X obj 656 269 -~ 0.5;
#X obj 656 291 *~ 0.5;
#X obj 656 173 wrap~;
#X obj 641 110 r~ \$0-local-signal;
#X obj 641 351 *~;
#X obj 656 132 r~ \$0-local-control;
#X obj 816 313 cos~;
#X obj 816 269 -~ 0.5;
#X obj 816 269 -~ 0.5;
#X obj 816 291 *~ 0.5;
#X obj 816 173 wrap~;
#X obj 801 110 r~ \$0-local-signal;
#X obj 801 351 *~;
#X obj 816 132 r~ \$0-local-control;
#X obj 816 228 /~ 0.333333;
#X obj 181 412 throw~ 2-dac-2;
#X obj 341 412 throw~ 2-dac-3;
#X obj 502 411 throw~ 2-dac-4;
#X obj 642 413 throw~ 2-dac-5;
#X obj 801 412 throw~ 2-dac-6;
#X obj 36 204 clip~ 0 0.333333;
#X obj 36 228 /~ 0.333333;
#X obj 197 227 /~ 0.333333;
#X obj 356 231 /~ 0.333333;
#X obj 516 227 /~ 0.333333;
#X obj 657 228 /~ 0.333333;
#X obj 197 203 clip~ 0 0.333333;
#X obj 357 202 clip~ 0 0.333333;
#X obj 518 203 clip~ 0 0.333333;
#X obj 657 204 clip~ 0 0.333333;
#X obj 816 203 clip~ 0 0.333333;
#X obj 36 152 -~ 0.833333;
#X obj 356 151 -~ 0.166667;
#X obj 517 153 -~ 0.333333;
#X obj 656 152 -~ 0.5;
#X obj 815 152 -~ 0.666667;
#X obj 478 8 inlet~ float 0-1;
#X connect 0 0 8 0;
#X connect 2 0 9 1;
#X connect 3 0 5 0;
#X connect 5 0 2 0;
#X connect 6 0 57 0;
#X connect 7 0 9 0;
#X connect 9 0 1 0;
#X connect 11 0 68 0;
#X connect 12 0 17 1;
#X connect 13 0 15 0;
#X connect 15 0 12 0;
#X connect 16 0 17 0;
#X connect 17 0 52 0;
#X connect 18 0 63 0;
#X connect 19 0 25 1;
#X connect 20 0 22 0;
#X connect 22 0 19 0;
#X connect 23 0 64 0;
#X connect 24 0 25 0;
#X connect 25 0 53 0;
#X connect 26 0 69 0;
#X connect 27 0 33 1;
#X connect 28 0 30 0;
#X connect 30 0 27 0;
#X connect 31 0 65 0;
#X connect 32 0 33 0;
#X connect 33 0 54 0;
#X connect 34 0 70 0;
#X connect 35 0 41 1;
#X connect 36 0 38 0;
#X connect 38 0 35 0;
#X connect 39 0 66 0;
#X connect 40 0 41 0;
#X connect 41 0 55 0;
#X connect 42 0 71 0;
#X connect 43 0 49 1;
#X connect 44 0 46 0;
#X connect 46 0 43 0;
#X connect 47 0 67 0;
#X connect 48 0 49 0;
#X connect 49 0 56 0;
#X connect 50 0 72 0;
#X connect 51 0 44 0;
#X connect 57 0 58 0;
#X connect 58 0 3 0;
#X connect 59 0 13 0;
#X connect 60 0 20 0;
#X connect 61 0 28 0;
#X connect 62 0 36 0;
#X connect 63 0 59 0;
#X connect 64 0 60 0;
#X connect 65 0 61 0;
#X connect 66 0 62 0;
#X connect 67 0 51 0;
#X connect 68 0 6 0;
#X connect 69 0 23 0;
#X connect 70 0 31 0;
#X connect 71 0 39 0;
#X connect 72 0 47 0;
#X connect 73 0 10 0;
