#N canvas 389 58 450 300 10;
#X obj 32 6 inlet;
#X obj 32 32 unpack 0 0 0 0;
#X obj 77 158 vline~;
#X obj 77 179 pow~ 2;
#X obj 77 105 pow 0.5;
#X obj 27 158 vline~;
#X obj 27 179 pow~ 2;
#X obj 27 105 pow 0.5;
#X msg 26 131 \$1 10;
#X msg 77 131 \$1 10;
#X obj 78 204 s~ amp-\$2-\$1;
#X obj 27 231 s~ freq-\$2-\$1;
#X obj 59 53 moses 0.1;
#X msg 59 74 0;
#X connect 0 0 1 0;
#X connect 1 0 7 0;
#X connect 1 1 12 0;
#X connect 2 0 3 0;
#X connect 3 0 10 0;
#X connect 4 0 9 0;
#X connect 5 0 6 0;
#X connect 6 0 11 0;
#X connect 7 0 8 0;
#X connect 8 0 5 0;
#X connect 9 0 2 0;
#X connect 12 0 13 0;
#X connect 12 1 4 0;
#X connect 13 0 4 0;
